<svg width="74" height="26" viewBox="0 0 74 26" fill="none" xmlns="http://www.w3.org/2000/svg">
<path d="M48.88 19.616C48.672 19.616 48.496 19.544 48.352 19.4C48.224 19.272 48.16 19.104 48.16 18.896V7.304C48.192 6.04 48.496 4.92 49.072 3.944C49.664 2.952 50.464 2.168 51.472 1.592C52.48 1.016 53.608 0.727997 54.856 0.727997C56.136 0.727997 57.28 1.024 58.288 1.616C59.312 2.192 60.112 2.992 60.688 4.016C61.28 5.024 61.576 6.168 61.576 7.448C61.576 8.712 61.28 9.856 60.688 10.88C60.112 11.888 59.312 12.688 58.288 13.28C57.28 13.856 56.136 14.144 54.856 14.144C53.704 14.144 52.664 13.896 51.736 13.4C50.824 12.904 50.112 12.24 49.6 11.408V18.896C49.6 19.104 49.536 19.272 49.408 19.4C49.28 19.544 49.104 19.616 48.88 19.616ZM54.856 12.8C55.864 12.8 56.76 12.568 57.544 12.104C58.344 11.624 58.976 10.984 59.44 10.184C59.904 9.368 60.136 8.456 60.136 7.448C60.136 6.424 59.904 5.512 59.44 4.712C58.976 3.896 58.344 3.256 57.544 2.792C56.76 2.312 55.864 2.072 54.856 2.072C53.864 2.072 52.968 2.312 52.168 2.792C51.368 3.256 50.736 3.896 50.272 4.712C49.824 5.512 49.6 6.424 49.6 7.448C49.6 8.456 49.824 9.368 50.272 10.184C50.736 10.984 51.368 11.624 52.168 12.104C52.968 12.568 53.864 12.8 54.856 12.8Z" fill="black"/>
<path d="M63.3803 14C63.0763 14 62.8603 13.864 62.7323 13.592C62.6043 13.32 62.6363 13.064 62.8283 12.824L67.2923 7.28L63.3563 2.072C63.1643 1.832 63.1323 1.576 63.2603 1.304C63.3883 1.016 63.6043 0.871996 63.9083 0.871996C64.1163 0.871996 64.2923 0.943996 64.4363 1.088L68.2763 6.2L72.2843 1.304C72.5243 1.016 72.7723 0.871996 73.0283 0.871996C73.3483 0.871996 73.5563 1.016 73.6523 1.304C73.7483 1.576 73.7003 1.832 73.5083 2.072L69.2603 7.136L73.5323 12.824C73.7403 13.08 73.8123 13.296 73.7483 13.472C73.7003 13.648 73.6043 13.784 73.4603 13.88C73.3163 13.96 73.1963 14 73.1003 14C72.9083 14 72.7563 13.968 72.6443 13.904C72.5323 13.824 72.4123 13.704 72.2843 13.544L68.2523 8.192L63.8843 13.784C63.7883 13.928 63.6203 14 63.3803 14Z" fill="black"/>
<path d="M12.976 25.704C10.6293 25.704 8.51733 25.1707 6.64 24.104C4.76266 22.9947 3.26933 21.5013 2.16 19.624C1.09333 17.7467 0.559998 15.6347 0.559998 13.288C0.559998 10.8987 1.09333 8.78666 2.16 6.952C3.26933 5.07466 4.76266 3.60266 6.64 2.536C8.51733 1.42666 10.6293 0.871995 12.976 0.871995C15.28 0.871995 17.3493 1.384 19.184 2.408C21.0187 3.432 22.4693 4.81866 23.536 6.568C24.6027 4.81866 26.0533 3.432 27.888 2.408C29.7227 1.384 31.792 0.871995 34.096 0.871995C36.4853 0.871995 38.5973 1.42666 40.432 2.536C42.3093 3.60266 43.7813 5.07466 44.848 6.952C45.9573 8.78666 46.512 10.8987 46.512 13.288C46.512 15.6347 45.9573 17.7467 44.848 19.624C43.7813 21.5013 42.3093 22.9947 40.432 24.104C38.5973 25.1707 36.4853 25.704 34.096 25.704C31.792 25.704 29.7227 25.192 27.888 24.168C26.0533 23.144 24.6027 21.7573 23.536 20.008C22.4693 21.7573 21.0187 23.144 19.184 24.168C17.3493 25.192 15.28 25.704 12.976 25.704ZM12.976 21.992C15.4933 21.992 17.5627 21.16 19.184 19.496C20.848 17.832 21.68 15.7627 21.68 13.288C21.68 10.7707 20.848 8.70133 19.184 7.08C17.5627 5.416 15.4933 4.584 12.976 4.584C10.5013 4.584 8.432 5.416 6.768 7.08C5.104 8.70133 4.272 10.7707 4.272 13.288C4.272 15.7627 5.104 17.832 6.768 19.496C8.432 21.16 10.5013 21.992 12.976 21.992ZM34.096 21.992C36.6133 21.992 38.6827 21.16 40.304 19.496C41.968 17.832 42.8 15.7627 42.8 13.288C42.8 10.7707 41.968 8.70133 40.304 7.08C38.6827 5.416 36.6133 4.584 34.096 4.584C31.6213 4.584 29.552 5.416 27.888 7.08C26.224 8.70133 25.392 10.7707 25.392 13.288C25.392 15.7627 26.224 17.832 27.888 19.496C29.552 21.16 31.6213 21.992 34.096 21.992Z" fill="black"/>
</svg>
